<svg width="34" height="30" viewBox="0 0 34 30" fill="none" xmlns="http://www.w3.org/2000/svg">
<path d="M22.4261 9.43274L17.5806 7.97899C17.2169 7.87047 16.843 7.83226 16.4726 7.84579V7.83332H10.5833L0.139648 4.36279L0.171223 19.0377L3.1692 20.5363L4.94426 16.1968L7.53734 17.2343L8.20969 15.5539L9.18345 16.5277L8.27496 17.4364C7.95921 17.7522 7.77826 18.1889 7.77826 18.6357C7.77826 19.5501 8.50739 20.2935 9.41429 20.3256C9.44586 21.2118 10.1583 21.9243 11.0445 21.9558C11.0761 22.842 11.7885 23.5544 12.6747 23.586C12.7073 24.4929 13.4502 25.222 14.3648 25.222C14.8114 25.222 15.2484 25.0411 15.5639 24.7253L16.4726 23.8169L16.8377 24.182C17.1535 24.4977 17.5902 24.6787 18.037 24.6787C18.9516 24.6787 19.6948 23.9495 19.7269 23.0426C20.6131 23.011 21.3255 22.2986 21.3571 21.4124C22.2433 21.3809 22.9557 20.6684 22.9873 19.7822C23.8942 19.7496 24.6236 19.0067 24.6236 18.0923C24.6236 18.0151 24.6111 17.939 24.6008 17.8623L25.3806 17.0825L26.0107 18.3433L29.424 16.6365L31.4866 20.5745L33.8613 18.9921V4.94732L22.4261 9.43274ZM2.60616 19.0398L1.25696 18.3651L1.22963 5.87014L7.18418 7.84924L2.60616 19.0398ZM6.93212 15.8214L5.35526 15.1909L8.21791 8.19258L9.77567 8.71051L6.93212 15.8214ZM8.86506 18.6357C8.86506 18.4752 8.92953 18.3184 9.04309 18.2046L9.99855 17.2494C10.1121 17.1358 10.2692 17.0711 10.4294 17.0711C10.7654 17.0711 11.0386 17.3446 11.0386 17.6803C11.0386 17.8405 10.9739 17.9976 10.8603 18.1112L9.90515 19.0666C9.79159 19.1802 9.63451 19.2447 9.47425 19.2447C9.13835 19.2447 8.86506 18.9714 8.86506 18.6357ZM10.4952 20.2659C10.4952 20.1054 10.5597 19.9486 10.6733 19.8348L11.6287 18.8796C11.7423 18.766 11.8994 18.7013 12.0596 18.7013C12.3955 18.7013 12.6688 18.9748 12.6688 19.3105C12.6688 19.4707 12.6041 19.6278 12.4905 19.7414L11.5353 20.6968C11.4218 20.8104 11.2647 20.8749 11.1044 20.8749C10.7685 20.8749 10.4952 20.6016 10.4952 20.2659ZM12.1254 21.8961C12.1254 21.7356 12.1899 21.5788 12.3035 21.465L13.2589 20.5098C13.3725 20.3962 13.5296 20.3315 13.6898 20.3315C14.0257 20.3315 14.299 20.605 14.299 20.9407C14.299 21.1009 14.2343 21.258 14.1207 21.3716L13.1655 22.327C13.052 22.4406 12.8949 22.5051 12.7346 22.5051C12.3987 22.5051 12.1254 22.2318 12.1254 21.8961ZM15.7509 23.0018L14.7957 23.9572C14.6822 24.0708 14.5251 24.1353 14.3648 24.1353C14.0289 24.1353 13.7556 23.862 13.7556 23.5263C13.7556 23.3658 13.8201 23.209 13.9337 23.0952L14.8891 22.14C15.0027 22.0264 15.1598 21.9617 15.32 21.9617C15.6559 21.9617 15.9292 22.2352 15.9292 22.5709C15.9292 22.7311 15.8645 22.8882 15.7509 23.0018ZM22.9276 18.7013C22.7673 18.7013 22.6103 18.6368 22.4967 18.5232L17.9436 13.9699L17.1752 14.7383L21.7283 19.2914C21.8419 19.4052 21.9066 19.562 21.9066 19.7225C21.9066 20.0582 21.6333 20.3315 21.2974 20.3315C21.1371 20.3315 20.9801 20.267 20.8665 20.1534L16.3134 15.6001L15.545 16.3685L20.0981 20.9216C20.2117 21.0354 20.2764 21.1922 20.2764 21.3527C20.2764 21.6884 20.0031 21.9617 19.6672 21.9617C19.5069 21.9617 19.3499 21.8972 19.2363 21.7836L14.6832 17.2303L13.9148 17.9987L18.4679 22.5518C18.5815 22.6656 18.6462 22.8224 18.6462 22.9829C18.6462 23.3186 18.3729 23.5919 18.037 23.5919C17.8768 23.5919 17.7197 23.5274 17.6061 23.4138L16.9932 22.8006C17.0041 22.7248 17.016 22.6486 17.016 22.5709C17.016 21.6563 16.2866 20.9131 15.3797 20.881C15.3482 19.9948 14.6357 19.2824 13.7495 19.2508C13.718 18.3646 13.0055 17.6522 12.1193 17.6206C12.0867 16.7137 11.344 15.9843 10.4294 15.9843C10.3522 15.9843 10.2761 15.9968 10.1997 16.0071L8.64828 14.4557L10.863 8.92012H14.074L12.0787 10.9157C11.758 11.2357 11.582 11.6618 11.582 12.115C11.582 13.05 12.3427 13.8107 13.278 13.8107C13.7246 13.8107 14.1616 13.6297 14.4771 13.314L15.9168 11.874C16.2113 11.5806 16.73 11.5692 17.0367 11.8502L18.3071 13.0147C18.7293 13.4016 19.1984 13.7234 19.7004 13.9755L23.3585 17.6612C23.4721 17.775 23.5368 17.9318 23.5368 18.0923C23.5368 18.428 23.2635 18.7013 22.9276 18.7013ZM24.0802 16.8461L21.8466 14.5955C22.0462 14.6144 22.2473 14.6258 22.45 14.6258V13.539C21.1849 13.539 19.9742 13.068 19.0418 12.2131L17.7712 11.0491C17.054 10.3906 15.8374 10.4168 15.1489 11.1062L13.7095 12.5459C13.5954 12.6589 13.4383 12.7239 13.278 12.7239C12.9421 12.7239 12.6688 12.4506 12.6688 12.115C12.6688 11.9518 12.7317 11.7992 12.8469 11.6838L14.9183 9.61263C15.527 9.00396 16.441 8.77233 17.2681 9.02015L22.0685 10.4601L24.8674 16.0588L24.0802 16.8461ZM26.4966 16.8854L23.2019 10.2956L25.6082 9.35154L28.9196 15.6736L26.4966 16.8854ZM32.7746 18.4107L31.8886 19.0014L26.626 8.95275L32.7746 6.54116V18.4107Z" fill="#E3B873"/>
<path d="M20.1523 1.57397C20.1523 1.84216 19.9349 2.05956 19.6667 2.05956C19.3986 2.05956 19.1812 1.84216 19.1812 1.57397C19.1812 1.30579 19.3986 1.08838 19.6667 1.08838C19.9349 1.08838 20.1523 1.30579 20.1523 1.57397Z" fill="#E3B873"/>
<path d="M7.8955 24.5032C7.8955 24.7714 7.67809 24.9888 7.40991 24.9888C7.14172 24.9888 6.92432 24.7714 6.92432 24.5032C6.92432 24.235 7.14172 24.0176 7.40991 24.0176C7.67809 24.0176 7.8955 24.235 7.8955 24.5032Z" fill="#E3B873"/>
<path d="M9.9536 26.1916C9.9536 26.4598 9.7362 26.6772 9.46801 26.6772C9.19983 26.6772 8.98242 26.4598 8.98242 26.1916C8.98242 25.9235 9.19983 25.7061 9.46801 25.7061C9.7362 25.7061 9.9536 25.9235 9.9536 26.1916Z" fill="#E3B873"/>
<path d="M12.3022 27.4304C12.3022 27.6986 12.0848 27.916 11.8166 27.916C11.5485 27.916 11.3311 27.6986 11.3311 27.4304C11.3311 27.1622 11.5485 26.9448 11.8166 26.9448C12.0848 26.9448 12.3022 27.1622 12.3022 27.4304Z" fill="#E3B873"/>
<path d="M14.8511 28.2229C14.8511 28.4911 14.6337 28.7085 14.3655 28.7085C14.0973 28.7085 13.8799 28.4911 13.8799 28.2229C13.8799 27.9547 14.0973 27.7373 14.3655 27.7373C14.6337 27.7373 14.8511 27.9547 14.8511 28.2229Z" fill="#E3B873"/>
<path d="M22.6997 2.34692C22.6997 2.6151 22.4823 2.83251 22.2141 2.83251C21.9459 2.83251 21.7285 2.6151 21.7285 2.34692C21.7285 2.07873 21.9459 1.86133 22.2141 1.86133C22.4823 1.86133 22.6997 2.07873 22.6997 2.34692Z" fill="#E3B873"/>
<path d="M25.0488 3.60131C25.0488 3.8695 24.8314 4.08691 24.5632 4.08691C24.295 4.08691 24.0776 3.8695 24.0776 3.60131C24.0776 3.33313 24.295 3.11572 24.5632 3.11572C24.8314 3.11572 25.0488 3.33313 25.0488 3.60131Z" fill="#E3B873"/>
<path fill-rule="evenodd" clip-rule="evenodd" d="M26.8305 2.39941C27.1066 2.39941 27.3305 2.62327 27.3305 2.89941V5.70111C27.3305 5.97725 27.1066 6.20111 26.8305 6.20111H23.9971C23.7209 6.20111 23.4971 5.97725 23.4971 5.70111C23.4971 5.42497 23.7209 5.20111 23.9971 5.20111H26.3305V2.89941C26.3305 2.62327 26.5543 2.39941 26.8305 2.39941Z" fill="#E3B873"/>
<path fill-rule="evenodd" clip-rule="evenodd" d="M5.01039 24.6865C4.73424 24.6865 4.51039 24.4627 4.51039 24.1865L4.51039 21.9197C4.51039 21.6436 4.73424 21.4197 5.01039 21.4197L7.27441 21.4197C7.55056 21.4197 7.77441 21.6436 7.77441 21.9197C7.77441 22.1958 7.55056 22.4197 7.27441 22.4197L5.51039 22.4197L5.51039 24.1865C5.51039 24.4627 5.28653 24.6865 5.01039 24.6865Z" fill="#E3B873"/>
<path fill-rule="evenodd" clip-rule="evenodd" d="M17.5441 1.77295C15.471 1.77294 14.2147 1.9451 12.3338 2.67955C10.5528 3.37496 9.62502 3.95783 8.129 5.25962C7.92068 5.44089 7.60486 5.41896 7.42359 5.21064C7.24232 5.00233 7.26425 4.68651 7.47256 4.50524C9.04678 3.1354 10.072 2.48914 11.97 1.74805C13.9918 0.958621 15.3763 0.772937 17.5441 0.772949C17.8202 0.772951 18.0441 0.99681 18.0441 1.27295C18.0441 1.54909 17.8202 1.77295 17.5441 1.77295Z" fill="#E3B873"/>
<path fill-rule="evenodd" clip-rule="evenodd" d="M16.9671 28.0638C19.5166 27.931 21.4063 27.3782 23.1672 26.406C24.846 25.4791 26.8995 23.7922 27.9836 22.1011C28.1327 21.8686 28.4419 21.8009 28.6744 21.95C28.9069 22.099 28.9745 22.4083 28.8255 22.6407C27.6272 24.51 25.4293 26.2994 23.6506 27.2814C21.7436 28.3343 19.7038 28.9226 17.0191 29.0625C16.7433 29.0769 16.5081 28.8649 16.4938 28.5892C16.4794 28.3134 16.6913 28.0782 16.9671 28.0638Z" fill="#E3B873"/>
</svg>
