<svg width="16" height="13" viewBox="0 0 16 13" fill="none" xmlns="http://www.w3.org/2000/svg">
<path fill-rule="evenodd" clip-rule="evenodd" d="M2.4 1.74414C2.04421 1.74414 1.75 2.03835 1.75 2.39414V10.7941C1.75 11.1499 2.04421 11.4441 2.4 11.4441H13.6C13.9558 11.4441 14.25 11.1499 14.25 10.7941V2.39414C14.25 2.03835 13.9558 1.74414 13.6 1.74414H2.4ZM0.25 2.39414C0.25 1.20993 1.21579 0.244141 2.4 0.244141H13.6C14.7842 0.244141 15.75 1.20993 15.75 2.39414V10.7941C15.75 11.9784 14.7842 12.9441 13.6 12.9441H2.4C1.21579 12.9441 0.25 11.9784 0.25 10.7941V2.39414Z" fill="white"/>
<path fill-rule="evenodd" clip-rule="evenodd" d="M0.385576 1.9645C0.623111 1.62516 1.09076 1.54264 1.4301 1.78017L8 6.3791L14.5699 1.78017C14.9092 1.54264 15.3769 1.62516 15.6144 1.9645C15.852 2.30384 15.7694 2.77148 15.4301 3.00902L8.4301 7.90902C8.17186 8.08979 7.82814 8.08979 7.5699 7.90902L0.569903 3.00902C0.230566 2.77148 0.14804 2.30384 0.385576 1.9645Z" fill="white"/>
</svg>
