<svg width="14" height="15" viewBox="0 0 14 15" fill="none" xmlns="http://www.w3.org/2000/svg">
<path fill-rule="evenodd" clip-rule="evenodd" d="M4.00001 2.34375C2.75737 2.34375 1.75001 3.35111 1.75001 4.59375V10.5938C1.75001 11.8364 2.75737 12.8438 4.00001 12.8438H10C11.2427 12.8438 12.25 11.8364 12.25 10.5938V4.59375C12.25 3.35111 11.2427 2.34375 10 2.34375H4.00001ZM0.250013 4.59375C0.250013 2.52268 1.92895 0.84375 4.00001 0.84375H10C12.0711 0.84375 13.75 2.52268 13.75 4.59375V10.5938C13.75 12.6648 12.0711 14.3438 10 14.3438H4.00001C1.92895 14.3438 0.250013 12.6648 0.250013 10.5938V4.59375Z" fill="white"/>
<path fill-rule="evenodd" clip-rule="evenodd" d="M7.26802 5.93582C6.92472 5.88491 6.57411 5.94355 6.26605 6.10339C5.958 6.26324 5.70819 6.51615 5.55215 6.82615C5.39612 7.13615 5.34181 7.48746 5.39695 7.83011C5.45208 8.17275 5.61386 8.48929 5.85927 8.7347C6.10467 8.9801 6.42121 9.14188 6.76386 9.19702C7.1065 9.25215 7.45781 9.19784 7.76782 9.04181C8.07782 8.88578 8.33073 8.63597 8.49057 8.32791C8.65041 8.01986 8.70905 7.66925 8.65814 7.32594C8.60622 6.97576 8.44304 6.65157 8.19272 6.40125C7.9424 6.15092 7.6182 5.98775 7.26802 5.93582ZM5.5752 4.77196C6.1633 4.4668 6.83265 4.35486 7.48805 4.45204C8.15657 4.55118 8.77549 4.8627 9.25338 5.34059C9.73127 5.81847 10.0428 6.43739 10.1419 7.10592C10.2391 7.76131 10.1272 8.43066 9.82201 9.01877C9.51685 9.60687 9.03402 10.0838 8.4422 10.3817C7.85038 10.6795 7.1797 10.7832 6.52555 10.678C5.87141 10.5727 5.26711 10.2639 4.79861 9.79536C4.33011 9.32686 4.02126 8.72256 3.916 8.06841C3.81074 7.41427 3.91442 6.74359 4.2123 6.15176C4.51018 5.55994 4.98709 5.07711 5.5752 4.77196Z" fill="white"/>
</svg>
