<svg width="43" height="44" viewBox="0 0 43 44" fill="none" xmlns="http://www.w3.org/2000/svg">
<path d="M36.7104 8.91104C34.4709 6.43597 31.6961 4.56548 28.6292 3.42344H36.5667C36.8383 4.24925 37.6161 4.84712 38.5315 4.84712C39.6722 4.84712 40.5997 3.91926 40.5997 2.77891C40.5997 1.63856 39.6719 0.711031 38.5315 0.711031C37.6164 0.711031 36.8386 1.3089 36.567 2.13438H24.2272V0.643557C24.2272 0.287385 23.9389 -0.000976562 23.5827 -0.000976562H19.3116C18.9558 -0.000976562 18.6671 0.287385 18.6671 0.643557V2.13471H6.32732C6.05574 1.3089 5.27794 0.711031 4.3625 0.711031C3.22215 0.711031 2.29429 1.63889 2.29429 2.77925C2.29429 3.9196 3.22215 4.84712 4.3625 4.84712C5.27794 4.84712 6.05574 4.24925 6.32732 3.42378H14.2648C11.1979 4.56581 8.42306 6.43597 6.18398 8.91104C2.75754 12.6987 0.870605 17.5995 0.870605 22.7108C0.870605 23.0669 1.1593 23.3553 1.51514 23.3553C1.87098 23.3553 2.15967 23.0669 2.15967 22.7108C2.15967 13.0643 9.20691 4.98274 18.6671 3.62352V4.9146C18.6671 5.27077 18.9558 5.55913 19.3116 5.55913H23.5827C23.9389 5.55913 24.2272 5.27077 24.2272 4.9146V3.62352C33.6874 4.98274 40.7343 13.0643 40.7343 22.7108C40.7343 23.0669 41.023 23.3553 41.3789 23.3553C41.735 23.3553 42.0234 23.0669 42.0234 22.7108C42.0234 17.5995 40.1365 12.6987 36.7104 8.91104ZM38.5315 2.0001C38.9612 2.0001 39.3106 2.34956 39.3106 2.77891C39.3106 3.2086 38.9612 3.55806 38.5315 3.55806C38.1018 3.55806 37.7524 3.2086 37.7524 2.77891C37.7524 2.34956 38.1018 2.0001 38.5315 2.0001ZM4.3625 3.55806C3.93281 3.55806 3.58335 3.2086 3.58335 2.77925C3.58335 2.34956 3.93281 2.0001 4.3625 2.0001C4.79219 2.0001 5.14165 2.34956 5.14165 2.77925C5.14165 3.2086 4.79219 3.55806 4.3625 3.55806ZM19.9562 4.27006V2.89002V2.88969V1.28809H22.9382V2.77723V2.77891V2.78059V2.88868V2.89103V4.27006H19.9562Z" fill="white"/>
<path fill-rule="evenodd" clip-rule="evenodd" d="M28.5011 3.13437H26.7981C27.3453 3.28243 27.8827 3.45248 28.4094 3.64347L28.5011 3.13437ZM36.7104 8.91104C40.1365 12.6987 42.0234 17.5995 42.0234 22.7108C42.0234 23.0669 41.735 23.3553 41.3789 23.3553C41.023 23.3553 40.7343 23.0669 40.7343 22.7108C40.7343 13.4073 34.1798 5.55957 25.2272 3.79382C24.8971 3.7287 24.5637 3.67186 24.2272 3.62352V4.9146C24.2272 5.27077 23.9389 5.55913 23.5827 5.55913H19.3116C18.9558 5.55913 18.6671 5.27077 18.6671 4.9146V3.62352C18.3307 3.67186 17.9973 3.7287 17.6671 3.79382C8.71455 5.55957 2.15967 13.4073 2.15967 22.7108C2.15967 23.0669 1.87098 23.3553 1.51514 23.3553C1.1593 23.3553 0.870605 23.0669 0.870605 22.7108C0.870605 17.5995 2.75754 12.6987 6.18398 8.91104C7.85887 7.05962 9.83356 5.54667 12.006 4.42378C12.7378 4.04553 13.492 3.71154 14.2648 3.42378H6.32732C6.05574 4.24925 5.27794 4.84712 4.3625 4.84712C3.22215 4.84712 2.29429 3.9196 2.29429 2.77925C2.29429 1.63889 3.22215 0.711031 4.3625 0.711031C5.27794 0.711031 6.05574 1.3089 6.32732 2.13471H18.6671V0.643557C18.6671 0.287385 18.9558 -0.000976562 19.3116 -0.000976562H23.5827C23.9389 -0.000976562 24.2272 0.287385 24.2272 0.643557V2.13438H36.567C36.8386 1.3089 37.6164 0.711031 38.5315 0.711031C39.6719 0.711031 40.5997 1.63856 40.5997 2.77891C40.5997 3.91926 39.6722 4.84712 38.5315 4.84712C37.6161 4.84712 36.8383 4.24925 36.5667 3.42344H28.6292C29.4019 3.71119 30.1561 4.04518 30.8879 4.42344C33.0604 5.54644 35.0352 7.05959 36.7104 8.91104ZM14.3929 3.13471H16.095C15.5481 3.28272 15.011 3.4527 14.4846 3.6436L14.3929 3.13471ZM39.3106 2.77891C39.3106 2.34956 38.9612 2.0001 38.5315 2.0001C38.1018 2.0001 37.7524 2.34956 37.7524 2.77891C37.7524 3.2086 38.1018 3.55806 38.5315 3.55806C38.9612 3.55806 39.3106 3.2086 39.3106 2.77891ZM3.58335 2.77925C3.58335 3.2086 3.93281 3.55806 4.3625 3.55806C4.79219 3.55806 5.14165 3.2086 5.14165 2.77925C5.14165 2.34956 4.79219 2.0001 4.3625 2.0001C3.93281 2.0001 3.58335 2.34956 3.58335 2.77925ZM19.9562 4.27006H22.9382V1.28809H19.9562V4.27006Z" fill="white"/>
<path d="M23.4336 7.44785C23.3198 7.24374 23.1047 7.11719 22.871 7.11719H20.0233C19.79 7.11719 19.5745 7.24374 19.4607 7.44785L10.9183 22.7525C10.8649 22.8485 10.8367 22.9566 10.8367 23.0667V23.7787C10.8367 23.9006 10.8713 24.0197 10.9364 24.1228L14.5831 29.8964H12.1929C11.8371 29.8964 11.5484 30.1848 11.5484 30.5409C11.5484 30.8968 11.8371 31.1855 12.1929 31.1855H12.2604V33.3883C12.2604 33.7445 12.5487 34.0328 12.9049 34.0328H13.6837V36.236C13.6837 36.5918 13.9724 36.8805 14.3283 36.8805H15.1077V39.081V39.0834V39.086V43.3544C15.1077 43.7106 15.3964 43.9989 15.7523 43.9989H27.142C27.4979 43.9989 27.7866 43.7106 27.7866 43.3544V36.8805H28.5657C28.9216 36.8805 29.2103 36.5918 29.2103 36.236V34.0328H29.9894C30.3452 34.0328 30.6339 33.7445 30.6339 33.3883V31.1855H30.7014C31.0573 31.1855 31.346 30.8968 31.346 30.5409C31.346 30.1848 31.0573 29.8964 30.7014 29.8964H29.9911C29.9904 29.8964 29.9901 29.8964 29.9894 29.8964C29.9887 29.8964 29.9884 29.8964 29.9877 29.8964H28.3113L31.9579 24.1228C32.023 24.0197 32.0576 23.9006 32.0576 23.7787V23.0667C32.0576 22.9566 32.0294 22.8485 31.9757 22.7525L23.4336 7.44785ZM21.4473 21.2197C21.877 21.2197 22.2265 21.5692 22.2265 21.9989C22.2265 22.4285 21.877 22.778 21.4473 22.778C21.0176 22.778 20.6682 22.4285 20.6682 21.9989C20.6682 21.5692 21.0176 21.2197 21.4473 21.2197ZM27.9212 35.5911H20.8495C20.4936 35.5911 20.2049 35.8798 20.2049 36.2357C20.2049 36.5918 20.4936 36.8802 20.8495 36.8802H26.4975V38.4385H25.718C25.3622 38.4385 25.0735 38.7269 25.0735 39.083C25.0735 39.4392 25.3622 39.7276 25.718 39.7276H26.4972V42.7099H16.3968V39.7279H17.176C17.5318 39.7279 17.8205 39.4395 17.8205 39.0834C17.8205 38.7272 17.5318 38.4388 17.176 38.4388H16.3968V36.8802H18.0954C18.4516 36.8802 18.74 36.5918 18.74 36.2357C18.74 35.8798 18.4516 35.5911 18.0954 35.5911H14.9728V34.0328H27.9212V35.5911ZM29.3449 32.7438H13.5494V31.1855H27.14H27.1414H27.1427H29.3449V32.7438ZM30.7686 23.5921L29.4842 25.6254H27.8537C27.4979 25.6254 27.2092 25.9137 27.2092 26.2699C27.2092 26.6261 27.4979 26.9144 27.8537 26.9144H28.6701L26.7865 29.8964H22.0915V28.4053C22.0915 28.0494 21.8032 27.7607 21.447 27.7607C21.0912 27.7607 20.8025 28.0494 20.8025 28.4053V29.8964H16.1074L14.2242 26.9144H15.0403C15.3964 26.9144 15.6848 26.6261 15.6848 26.2699C15.6848 25.9137 15.3964 25.6254 15.0403 25.6254H13.4098L12.1258 23.5921V23.2342L20.402 8.40625H20.8025V20.034C19.977 20.3056 19.3788 21.0834 19.3788 21.9985C19.3788 23.1392 20.3066 24.0671 21.447 24.0671C22.5877 24.0671 23.5155 23.1392 23.5155 21.9985C23.5155 21.0834 22.9173 20.3053 22.0919 20.034V8.40625H22.4923L30.7686 23.2342V23.5921Z" fill="white"/>
<path fill-rule="evenodd" clip-rule="evenodd" d="M31.9757 22.7525L23.4336 7.44785C23.3198 7.24374 23.1047 7.11719 22.871 7.11719H20.0233C19.79 7.11719 19.5745 7.24374 19.4607 7.44785L10.9183 22.7525C10.8649 22.8485 10.8367 22.9566 10.8367 23.0667V23.7787C10.8367 23.9006 10.8713 24.0197 10.9364 24.1228L14.5831 29.8964H12.1929C11.8371 29.8964 11.5484 30.1848 11.5484 30.5409C11.5484 30.8968 11.8371 31.1855 12.1929 31.1855H12.2604V33.3883C12.2604 33.7445 12.5487 34.0328 12.9049 34.0328H13.6837V36.236C13.6837 36.5918 13.9724 36.8805 14.3283 36.8805H15.1077V43.3544C15.1077 43.7106 15.3964 43.9989 15.7523 43.9989H27.142C27.4979 43.9989 27.7866 43.7106 27.7866 43.3544V36.8805H28.5657C28.9216 36.8805 29.2103 36.5918 29.2103 36.236V34.0328H29.9894C30.3452 34.0328 30.6339 33.7445 30.6339 33.3883V31.1855H30.7014C31.0573 31.1855 31.346 30.8968 31.346 30.5409C31.346 30.1848 31.0573 29.8964 30.7014 29.8964H28.3113L31.9579 24.1228C32.023 24.0197 32.0576 23.9006 32.0576 23.7787V23.0667C32.0576 22.9566 32.0294 22.8485 31.9757 22.7525ZM16.1074 29.8964H20.8025V28.4053C20.8025 28.0494 21.0912 27.7607 21.447 27.7607C21.8032 27.7607 22.0915 28.0494 22.0915 28.4053V29.8964H26.7865L28.6701 26.9144H27.8537C27.7395 26.9144 27.6321 26.8847 27.5391 26.8326C27.3423 26.7223 27.2092 26.5117 27.2092 26.2699C27.2092 25.9137 27.4979 25.6254 27.8537 25.6254H29.4842L30.7686 23.5921V23.2342L22.4923 8.40625H22.0919V20.034C22.9173 20.3053 23.5155 21.0834 23.5155 21.9985C23.5155 23.1392 22.5877 24.0671 21.447 24.0671C20.3066 24.0671 19.3788 23.1392 19.3788 21.9985C19.3788 21.0834 19.977 20.3056 20.8025 20.034V8.40625H20.402L12.1258 23.2342V23.5921L13.4098 25.6254H15.0403C15.3964 25.6254 15.6848 25.9137 15.6848 26.2699C15.6848 26.5117 15.5519 26.7222 15.3552 26.8325C15.2621 26.8847 15.1547 26.9144 15.0403 26.9144H14.2242L16.1074 29.8964ZM22.2265 21.9989C22.2265 21.5692 21.877 21.2197 21.4473 21.2197C21.0176 21.2197 20.6682 21.5692 20.6682 21.9989C20.6682 22.4285 21.0176 22.778 21.4473 22.778C21.877 22.778 22.2265 22.4285 22.2265 21.9989ZM27.9212 35.5911V34.0328H14.9728V35.5911H18.0954C18.4516 35.5911 18.74 35.8798 18.74 36.2357C18.74 36.5918 18.4516 36.8802 18.0954 36.8802H16.3968V38.4388H17.176C17.5318 38.4388 17.8205 38.7272 17.8205 39.0834C17.8205 39.4395 17.5318 39.7279 17.176 39.7279H16.3968V42.7099H26.4972V39.7276H25.718C25.3622 39.7276 25.0735 39.4392 25.0735 39.083C25.0735 38.7269 25.3622 38.4385 25.718 38.4385H26.4975V36.8802H20.8495C20.4936 36.8802 20.2049 36.5918 20.2049 36.2357C20.2049 35.8798 20.4936 35.5911 20.8495 35.5911H27.9212ZM29.3449 32.7438V31.1855H13.5494V32.7438H29.3449Z" fill="white"/>
</svg>
