<svg width="41" height="34" viewBox="0 0 41 34" fill="none" xmlns="http://www.w3.org/2000/svg">
<path d="M20.8396 24.3282C20.4878 24.3282 20.2026 24.6063 20.2026 24.9493V26.2739C20.2026 26.6169 20.4878 26.8949 20.8396 26.8949C21.1914 26.8949 21.4765 26.6169 21.4765 26.2739V24.9493C21.4765 24.6063 21.1914 24.3282 20.8396 24.3282Z" fill="white"/>
<path fill-rule="evenodd" clip-rule="evenodd" d="M20.1026 24.9493C20.1026 24.5487 20.435 24.2283 20.8396 24.2283C21.2442 24.2283 21.5765 24.5487 21.5765 24.9493V26.2739C21.5765 26.6745 21.2442 26.995 20.8396 26.995C20.435 26.995 20.1026 26.6745 20.1026 26.2739V24.9493ZM20.2026 24.9493C20.2026 24.6063 20.4878 24.3283 20.8396 24.3283C21.1914 24.3283 21.4765 24.6063 21.4765 24.9493V26.2739C21.4765 26.6169 21.1914 26.895 20.8396 26.895C20.4878 26.895 20.2026 26.6169 20.2026 26.2739V24.9493Z" fill="white"/>
<path d="M40.1144 15.4299C39.8658 15.1875 39.5354 15.0541 39.1838 15.0541C39.1837 15.0541 39.1836 15.0541 39.1835 15.0541L37.5484 15.0543C37.5277 15.0543 37.5135 15.0316 37.5091 15.0106C37.0597 12.8612 36.0518 10.8348 34.5943 9.15053C33.1855 7.52259 31.3813 6.24229 29.3693 5.43814C29.0448 4.10239 28.3595 2.72521 27.0082 1.68996C25.6999 0.687686 24.3823 0.494819 24.3269 0.487049C24.1444 0.461684 23.959 0.5147 23.8195 0.63269C23.6799 0.75068 23.5998 0.921762 23.5998 1.10183V4.45537H21.2883C20.717 2.54422 18.9055 1.14327 16.7634 1.14327C14.5758 1.14327 12.7319 2.60402 12.2027 4.57748C9.05336 4.99574 6.15586 6.48338 4.00586 8.79633C1.74508 11.2287 0.5 14.3774 0.5 17.6624C0.5 25.0359 4.42617 31.0355 5.62961 32.6985C6.00133 33.2123 6.61016 33.5191 7.2582 33.5191H9.96922C11.0697 33.5191 11.965 32.6462 11.965 31.5732V30.7136C12.651 30.8166 13.348 30.8694 14.0457 30.8694H20.2028V31.5732C20.2028 32.6462 21.0981 33.5191 22.1986 33.5191H25.1765C26.1113 33.5191 26.932 32.8722 27.1279 31.981L27.4548 30.4938C31.641 29.4998 35.0069 26.6364 36.6635 22.9205H39.1837C39.9095 22.9205 40.5 22.3448 40.5 21.6371V16.3377C40.5 15.9947 40.3631 15.6724 40.1144 15.4299ZM16.7633 2.3854C18.6598 2.3854 20.2027 3.8898 20.2027 5.73895C20.2027 6.21182 20.0989 6.67761 19.9033 7.10517L13.6232 7.10517C13.4277 6.67746 13.3237 6.21182 13.3237 5.73895C13.3237 3.88972 14.8667 2.3854 16.7633 2.3854ZM39.2261 21.6369C39.2261 21.6598 39.2071 21.6784 39.1836 21.6784H37.1423C37.4893 20.6193 37.7028 19.5055 37.7639 18.357C37.7822 18.0145 37.5121 17.7224 37.1608 17.7046C36.8095 17.6873 36.5099 17.9501 36.4917 18.2927C36.2219 23.3651 32.6809 27.696 27.7548 29.1283L28.6448 25.0794C28.7185 24.744 28.4994 24.4139 28.1554 24.342C27.8116 24.27 27.4728 24.4838 27.3991 24.8192L25.8823 31.7206C25.8114 32.043 25.5145 32.277 25.1765 32.277H22.1984C21.8004 32.277 21.4766 31.9613 21.4766 31.5732V28.9235C21.4766 28.5805 21.1914 28.3024 20.8396 28.3024C20.4878 28.3024 20.2027 28.5805 20.2027 28.9235V29.6273H14.0455C13.3467 29.6273 12.6491 29.5687 11.9648 29.455V24.949C11.9648 24.606 11.6797 24.328 11.3279 24.328C10.9761 24.328 10.6909 24.606 10.6909 24.949V31.5732C10.6909 31.9613 10.3671 32.2771 9.96906 32.2771H7.2582C7.02008 32.2771 6.80586 32.1697 6.67055 31.9826C5.52187 30.3949 1.77391 24.6703 1.77391 17.6624C1.77391 14.6862 2.9018 11.8337 4.94977 9.63042C6.82398 7.61392 9.32469 6.29005 12.0519 5.85526C12.0629 6.28083 12.1345 6.70161 12.2629 7.10501H12.0074C11.6556 7.10501 11.3705 7.38304 11.3705 7.72604C11.3705 8.06904 11.6556 8.34707 12.0074 8.34707H21.5191C21.8709 8.34707 22.1561 8.06904 22.1561 7.72604C22.1561 7.38304 21.8709 7.10501 21.5191 7.10501H21.2636C21.4038 6.66482 21.4766 6.20405 21.4766 5.7388C21.4766 5.72486 21.4757 5.71122 21.4755 5.69736H23.5998V7.06358C23.5998 7.40658 23.8849 7.68461 24.2367 7.68461C24.5885 7.68461 24.8737 7.40658 24.8737 7.06358V1.91725C26.0822 2.36316 28.3556 3.73281 28.3556 7.72612C28.3556 8.06912 28.6408 8.34715 28.9926 8.34715C29.3444 8.34715 29.6295 8.06912 29.6295 7.72612C29.6295 7.46302 29.6198 7.18522 29.5974 6.89813C31.1339 7.62786 32.5123 8.6708 33.6207 9.95163C34.941 11.4774 35.854 13.3126 36.2609 15.2588C36.3866 15.8601 36.9282 16.2965 37.5487 16.2964L39.1838 16.2963C39.188 16.2963 39.2013 16.2963 39.2138 16.3084C39.2262 16.3205 39.2262 16.3333 39.2262 16.3377V21.6369H39.2261Z" fill="white"/>
<path fill-rule="evenodd" clip-rule="evenodd" d="M24.3269 0.487073C24.3823 0.494842 25.6999 0.687709 27.0082 1.68998C28.3595 2.72523 29.0448 4.10242 29.3693 5.43817C31.3812 6.24231 33.1855 7.52261 34.5943 9.15056C36.0518 10.8349 37.0597 12.8612 37.5091 15.0106C37.5135 15.0316 37.5277 15.0543 37.5484 15.0543L39.1835 15.0541C39.5351 15.0541 39.8658 15.1876 40.1144 15.4299C40.3631 15.6724 40.5 15.9947 40.5 16.3377V21.6371C40.5 22.3448 39.9095 22.9205 39.1837 22.9205H36.6635C35.0069 26.6364 31.641 29.4999 27.4548 30.4938L27.1279 31.981C26.932 32.8722 26.1113 33.5192 25.1765 33.5192H22.1986C21.0981 33.5192 20.2028 32.6462 20.2028 31.5733V30.8694H14.0457C13.3818 30.8694 12.7187 30.8217 12.065 30.7283C12.0316 30.7236 11.9983 30.7187 11.965 30.7137V31.5733C11.965 32.6462 11.0697 33.5192 9.96921 33.5192H7.2582C6.61015 33.5192 6.00132 33.2123 5.6296 32.6986C4.42617 31.0355 0.499994 25.036 0.499994 17.6625C0.499994 14.3774 1.74507 11.2288 4.00585 8.79636C6.15585 6.4834 9.05335 4.99576 12.2027 4.5775C12.7319 2.60404 14.5758 1.14329 16.7634 1.14329C18.9055 1.14329 20.717 2.54425 21.2883 4.4554H23.5998V1.10186C23.5998 0.921786 23.6799 0.750704 23.8194 0.632713C23.959 0.514723 24.1444 0.461708 24.3269 0.487073ZM23.4998 4.3554V1.10186C23.4998 0.891865 23.5933 0.693024 23.7549 0.556355C23.9164 0.419762 24.1304 0.358801 24.3406 0.388025C24.4039 0.396893 25.7412 0.593341 27.069 1.6106C28.4259 2.65011 29.1207 4.02815 29.4541 5.36449C31.4616 6.17561 33.2617 7.45784 34.6699 9.08512C36.1303 10.7727 37.1428 12.8013 37.5995 14.9543L39.1835 14.9541C39.5609 14.9541 39.9166 15.0975 40.1842 15.3583C40.452 15.6193 40.6 15.9673 40.6 16.3377V21.6371C40.6 22.4024 39.9623 23.0205 39.1837 23.0205H36.7282C35.0578 26.7179 31.705 29.5674 27.539 30.5765L27.2256 32.0025C27.0193 32.9412 26.1566 33.6192 25.1765 33.6192H22.1986C21.0453 33.6192 20.1028 32.7038 20.1028 31.5733V30.9694H14.0457C13.3818 30.9694 12.7187 30.922 12.065 30.8293V31.5733C12.065 32.7038 11.1225 33.6192 9.96921 33.6192H7.2582C6.57889 33.6192 5.93959 33.2976 5.54859 32.7572C4.34157 31.0892 0.399994 25.0682 0.399994 17.6625C0.399994 14.3518 1.65484 11.179 3.93261 8.72828C6.08365 6.4142 8.97716 4.92039 12.1239 4.48726C12.6873 2.50252 14.5546 1.04329 16.7634 1.04329C18.9228 1.04329 20.7549 2.43843 21.3621 4.3554H23.4998ZM39.1262 21.537V16.3963L37.5487 16.3965C36.8816 16.3965 36.2986 15.9276 36.163 15.2792C35.7596 13.3499 34.8544 11.5302 33.5451 10.0171C32.4832 8.79001 31.1712 7.78286 29.7092 7.06326C29.7232 7.29186 29.7295 7.51375 29.7295 7.72614C29.7295 8.12674 29.3972 8.44717 28.9926 8.44717C28.5879 8.44717 28.2556 8.12674 28.2556 7.72614C28.2556 5.74984 27.6936 4.43178 26.9898 3.55399C26.3367 2.73937 25.5563 2.29749 24.9737 2.06301V7.0636C24.9737 7.4642 24.6413 7.78463 24.2367 7.78463C23.8321 7.78463 23.4998 7.4642 23.4998 7.0636V5.79738H21.5763C21.571 6.20745 21.5105 6.61351 21.3983 7.00504H21.5191C21.9238 7.00504 22.2561 7.32546 22.2561 7.72607C22.2561 8.12667 21.9238 8.44709 21.5191 8.44709H12.0074C11.6028 8.44709 11.2705 8.12667 11.2705 7.72607C11.2705 7.32546 11.6028 7.00504 12.0074 7.00504H12.1282C12.0321 6.66926 11.9741 6.32276 11.9563 5.9723C9.29422 6.42155 6.85632 7.72604 5.02301 9.69852L4.94976 9.63044C6.80114 7.63851 9.26383 6.32244 11.9523 5.87158C11.9854 5.86602 12.0186 5.86058 12.0519 5.85529C12.0527 5.88888 12.054 5.92243 12.0556 5.95596C12.0728 6.3122 12.1325 6.66436 12.2323 7.00504C12.2421 7.03848 12.2523 7.07182 12.2629 7.10504H12.0074C11.6556 7.10504 11.3705 7.38306 11.3705 7.72607C11.3705 8.06907 11.6556 8.3471 12.0074 8.3471H21.5191C21.8709 8.3471 22.1561 8.06907 22.1561 7.72607C22.1561 7.38306 21.8709 7.10504 21.5191 7.10504H21.2636C21.2742 7.07182 21.2844 7.03848 21.2942 7.00504C21.4089 6.61388 21.4709 6.20764 21.4762 5.79738C21.4765 5.77787 21.4766 5.75835 21.4766 5.73882C21.4766 5.73122 21.4764 5.72371 21.4761 5.71621C21.4758 5.70994 21.4756 5.70369 21.4755 5.69738H23.5998V7.0636C23.5998 7.4066 23.8849 7.68463 24.2367 7.68463C24.5885 7.68463 24.8737 7.4066 24.8737 7.0636V1.91728C24.9062 1.9293 24.9396 1.94199 24.9737 1.95539C26.2031 2.43894 28.3556 3.84049 28.3556 7.72614C28.3556 8.06914 28.6408 8.34717 28.9926 8.34717C29.3444 8.34717 29.6295 8.06914 29.6295 7.72614C29.6295 7.49827 29.6222 7.25936 29.6057 7.01295C29.6032 6.97486 29.6004 6.93659 29.5974 6.89815C29.6322 6.91466 29.6669 6.93133 29.7015 6.94816C31.1961 7.67519 32.5374 8.6998 33.6207 9.95166C34.941 11.4775 35.854 13.3126 36.2609 15.2588C36.3866 15.8602 36.9282 16.2965 37.5487 16.2965L39.1837 16.2963C39.188 16.2963 39.2013 16.2963 39.2137 16.3084C39.2262 16.3205 39.2262 16.3333 39.2262 16.3377V21.637C39.2262 21.6598 39.2071 21.6784 39.1836 21.6784H37.1423C37.1532 21.6451 37.164 21.6118 37.1746 21.5784C37.5026 20.5493 37.7047 19.4694 37.7639 18.357C37.7822 18.0145 37.5121 17.7224 37.1608 17.7047C36.8094 17.6873 36.5099 17.9502 36.4917 18.2927C36.2239 23.3275 32.7333 27.6317 27.8643 29.0959C27.8279 29.1069 27.7914 29.1177 27.7548 29.1283L28.6448 25.0794C28.7185 24.744 28.4994 24.4139 28.1554 24.342C27.8116 24.27 27.4728 24.4838 27.3991 24.8192L25.8823 31.7207C25.8114 32.043 25.5145 32.277 25.1765 32.277H22.1984C21.8004 32.277 21.4766 31.9613 21.4766 31.5732V28.9235C21.4766 28.5805 21.1914 28.3024 20.8396 28.3024C20.4878 28.3024 20.2027 28.5805 20.2027 28.9235V29.6273H14.0455C13.3467 29.6273 12.6491 29.5687 11.9648 29.455V24.9491C11.9648 24.6061 11.6797 24.328 11.3279 24.328C10.9761 24.328 10.6909 24.6061 10.6909 24.9491V31.5733C10.6909 31.9614 10.3671 32.2771 9.96906 32.2771H7.2582C7.02007 32.2771 6.80585 32.1698 6.67054 31.9826C5.52187 30.395 1.7739 24.6703 1.7739 17.6624C1.7739 14.6862 2.90179 11.8337 4.94976 9.63044L5.02301 9.69852C2.99203 11.8835 1.8739 14.7118 1.8739 17.6624C1.8739 24.6381 5.6064 30.3412 6.75156 31.924C6.86738 32.0842 7.05097 32.1771 7.2582 32.1771H9.96906C10.3143 32.1771 10.5909 31.9038 10.5909 31.5733V24.9491C10.5909 24.5485 10.9233 24.228 11.3279 24.228C11.7325 24.228 12.0648 24.5485 12.0648 24.9491V29.37C12.717 29.4739 13.3807 29.5273 14.0455 29.5273H20.1026V28.9235C20.1026 28.5229 20.435 28.2024 20.8396 28.2024C21.2442 28.2024 21.5766 28.5229 21.5766 28.9235V31.5732C21.5766 31.9037 21.8532 32.177 22.1984 32.177H25.1765C25.4692 32.177 25.7242 31.9741 25.7846 31.6992L27.3015 24.7977C27.3873 24.4067 27.7805 24.1613 28.1759 24.2442C28.5721 24.327 28.8286 24.709 28.7424 25.1009L27.8889 28.984C32.6912 27.5161 36.1273 23.26 36.3919 18.2874C36.4131 17.8874 36.7619 17.5848 37.1657 17.6048C37.5699 17.6252 37.8851 17.9622 37.8638 18.3623C37.8047 19.4725 37.6043 20.5504 37.2796 21.5784H39.1261L39.1262 21.537ZM20.1027 5.73897C20.1027 3.94742 18.607 2.48543 16.7633 2.48543C14.9195 2.48543 13.4237 3.94735 13.4237 5.73897C13.4237 6.17577 13.5152 6.60645 13.6881 7.00519L19.8384 7.00519C20.0113 6.60659 20.1027 6.17578 20.1027 5.73897ZM19.9033 7.10519C20.0989 6.67764 20.2027 6.21185 20.2027 5.73897C20.2027 3.88982 18.6598 2.38543 16.7633 2.38543C14.8667 2.38543 13.3237 3.88975 13.3237 5.73897C13.3237 6.21185 13.4277 6.67748 13.6232 7.10519L19.9033 7.10519Z" fill="white"/>
<path d="M33.6658 15.4583C33.2705 14.4242 32.224 13.7294 31.0621 13.7294C29.9001 13.7294 28.8538 14.4241 28.4583 15.4583C28.3354 15.7797 28.503 16.1373 28.8326 16.2571C29.1623 16.3771 29.5291 16.2136 29.6519 15.8922C29.8625 15.3415 30.4292 14.9714 31.062 14.9714C31.6948 14.9714 32.2616 15.3415 32.4722 15.8922C32.5677 16.1421 32.8107 16.2964 33.0691 16.2964C33.143 16.2964 33.2182 16.2838 33.2915 16.2571C33.6211 16.1373 33.7887 15.7796 33.6658 15.4583Z" fill="white"/>
<path fill-rule="evenodd" clip-rule="evenodd" d="M28.3649 15.4226L28.3649 15.4226C28.7762 14.3472 29.8614 13.6294 31.0621 13.6294C32.2627 13.6294 33.3481 14.3473 33.7592 15.4226M28.3649 15.4226C28.2214 15.7979 28.418 16.2128 28.7984 16.3511ZM28.7984 16.3511C29.1777 16.4892 29.6023 16.3019 29.7453 15.9279C29.9397 15.4195 30.4666 15.0715 31.062 15.0715C31.6574 15.0715 32.1844 15.4195 32.3788 15.9279C32.49 16.2189 32.7718 16.3965 33.0691 16.3965M29.6519 15.8922C29.529 16.2136 29.1623 16.3771 28.8326 16.2572C28.503 16.1373 28.3354 15.7797 28.4583 15.4583C28.8538 14.4242 29.9001 13.7294 31.0621 13.7294C32.224 13.7294 33.2705 14.4242 33.6658 15.4583C33.7887 15.7796 33.6211 16.1373 33.2915 16.2572C33.2182 16.2838 33.143 16.2965 33.0691 16.2965C32.8107 16.2965 32.5677 16.1421 32.4722 15.8922C32.2616 15.3415 31.6948 14.9715 31.062 14.9715C30.4292 14.9715 29.8625 15.3415 29.6519 15.8922ZM33.3257 16.3511C33.706 16.2129 33.9027 15.7978 33.7592 15.4226Z" fill="white"/>
<path d="M17.4002 17.189V14.0154C18.6497 14.1634 19.5233 14.7279 19.5233 15.2406C19.5233 15.5836 19.8085 15.8616 20.1603 15.8616C20.5121 15.8616 20.7972 15.5836 20.7972 15.2406C20.7972 13.971 19.3493 12.9502 17.4002 12.7658V12.6944C17.4002 12.3514 17.115 12.0734 16.7632 12.0734C16.4114 12.0734 16.1263 12.3514 16.1263 12.6944V12.7658C14.1772 12.9502 12.7292 13.971 12.7292 15.2406C12.7292 17.054 14.5667 17.7085 16.1263 18.1361V21.3097C14.8767 21.1617 14.0032 20.5972 14.0032 20.0845C14.0032 19.7415 13.718 19.4635 13.3662 19.4635C13.0144 19.4635 12.7292 19.7415 12.7292 20.0845C12.7292 21.3541 14.1772 22.3749 16.1263 22.5593V22.6307C16.1263 22.9737 16.4114 23.2517 16.7632 23.2517C17.115 23.2517 17.4002 22.9737 17.4002 22.6307V22.5593C19.3493 22.3749 20.7972 21.3541 20.7972 20.0845C20.7972 18.271 18.9596 17.6166 17.4002 17.189ZM16.1263 16.8359C14.5575 16.3561 14.0032 15.92 14.0032 15.2406C14.0032 14.7279 14.8767 14.1634 16.1263 14.0154V16.8359ZM17.4002 21.3098V18.4893C18.9689 18.969 19.5233 19.4051 19.5233 20.0846C19.5233 20.5973 18.6496 21.1617 17.4002 21.3098Z" fill="white"/>
<path fill-rule="evenodd" clip-rule="evenodd" d="M17.5002 17.1129C18.2605 17.3238 19.0913 17.5946 19.7396 18.0343C20.4136 18.4914 20.8972 19.1362 20.8972 20.0845C20.8972 20.7609 20.5111 21.3605 19.8881 21.81C19.2842 22.2457 18.4507 22.5466 17.4999 22.6497C17.4896 23.0414 17.1614 23.3518 16.7632 23.3518C16.365 23.3518 16.0368 23.0414 16.0265 22.6497C15.0757 22.5466 14.2423 22.2457 13.6383 21.81C13.0154 21.3605 12.6292 20.7609 12.6292 20.0845C12.6292 19.6839 12.9616 19.3635 13.3662 19.3635C13.7708 19.3635 14.1031 19.6839 14.1031 20.0845C14.1031 20.2851 14.2797 20.5284 14.6474 20.748C14.9855 20.95 15.4615 21.1162 16.0263 21.1959V18.2123C15.2659 18.0014 14.4352 17.7305 13.7868 17.2908C13.1129 16.8338 12.6292 16.1889 12.6292 15.2406C12.6292 14.5643 13.0154 13.9646 13.6383 13.5151C14.2423 13.0794 15.0757 12.7786 16.0265 12.6754C16.0368 12.2837 16.365 11.9734 16.7632 11.9734C17.1614 11.9734 17.4896 12.2837 17.4999 12.6754C18.4507 12.7786 19.2842 13.0794 19.8881 13.5151C20.5111 13.9646 20.8972 14.5643 20.8972 15.2406C20.8972 15.6412 20.5649 15.9616 20.1603 15.9616C19.7556 15.9616 19.4233 15.6412 19.4233 15.2406C19.4233 15.04 19.2467 14.7967 18.879 14.5771C18.5409 14.3752 18.0649 14.209 17.5002 14.1292V17.1129ZM17.4002 17.189C18.9596 17.6166 20.7972 18.271 20.7972 20.0845C20.7972 21.3542 19.3492 22.3749 17.4002 22.5594V22.6307C17.4002 22.9737 17.115 23.2518 16.7632 23.2518C16.4114 23.2518 16.1263 22.9737 16.1263 22.6307V22.5594C14.1772 22.3749 12.7292 21.3542 12.7292 20.0845C12.7292 19.7415 13.0144 19.4635 13.3662 19.4635C13.718 19.4635 14.0031 19.7415 14.0031 20.0845C14.0031 20.5835 14.8304 21.1314 16.0263 21.2969C16.0593 21.3015 16.0927 21.3058 16.1263 21.3098V18.1361C14.5667 17.7085 12.7292 17.054 12.7292 15.2406C12.7292 13.971 14.1772 12.9502 16.1263 12.7658V12.6944C16.1263 12.3514 16.4114 12.0734 16.7632 12.0734C17.115 12.0734 17.4002 12.3514 17.4002 12.6944V12.7658C19.3492 12.9502 20.7972 13.971 20.7972 15.2406C20.7972 15.5836 20.5121 15.8616 20.1603 15.8616C19.8085 15.8616 19.5233 15.5836 19.5233 15.2406C19.5233 14.7417 18.6961 14.1938 17.5002 14.0282C17.4671 14.0237 17.4338 14.0194 17.4002 14.0154V17.189ZM16.1263 16.8359V14.0154C16.0927 14.0194 16.0593 14.0237 16.0263 14.0282C14.8304 14.1938 14.0031 14.7417 14.0031 15.2406C14.0031 15.9054 14.5339 16.3372 16.0263 16.8049C16.0591 16.8152 16.0925 16.8255 16.1263 16.8359ZM16.0263 16.7001V14.1292C15.4615 14.209 14.9855 14.3752 14.6474 14.5771C14.2797 14.7967 14.1031 15.04 14.1031 15.2406C14.1031 15.5451 14.2237 15.7959 14.5369 16.0334C14.8388 16.2625 15.3157 16.4756 16.0263 16.7001ZM17.4002 21.3098C17.4338 21.3059 17.4671 21.3016 17.5002 21.297C18.696 21.1314 19.5233 20.5835 19.5233 20.0846C19.5233 19.4198 18.9926 18.988 17.5002 18.5203C17.4673 18.51 17.434 18.4997 17.4002 18.4893V21.3098ZM17.5002 21.196C18.0649 21.1162 18.5409 20.95 18.879 20.7481C19.2467 20.5285 19.4233 20.2852 19.4233 20.0846C19.4233 19.7802 19.3027 19.5293 18.9896 19.2917C18.6877 19.0627 18.2107 18.8495 17.5002 18.6251V21.196Z" fill="white"/>
</svg>
