<svg width="33" height="33" viewBox="0 0 33 33" fill="none" xmlns="http://www.w3.org/2000/svg">
<path fill-rule="evenodd" clip-rule="evenodd" d="M3.25031 1.25443C3.25031 1.04353 3.42854 0.872559 3.6484 0.872559H32.3115C32.5314 0.872559 32.7096 1.04353 32.7096 1.25443V28.8765C32.7096 29.0874 32.5314 29.2584 32.3115 29.2584C32.0916 29.2584 31.9134 29.0874 31.9134 28.8765V1.6363H3.6484C3.42854 1.6363 3.25031 1.46533 3.25031 1.25443Z" fill="white"/>
<path fill-rule="evenodd" clip-rule="evenodd" d="M3.00031 1.25443C3.00031 0.895754 3.30038 0.622559 3.6484 0.622559H32.3115C32.6595 0.622559 32.9596 0.895756 32.9596 1.25443V28.8765C32.9596 29.2352 32.6595 29.5084 32.3115 29.5084C31.9635 29.5084 31.6634 29.2352 31.6634 28.8765V1.8863H3.6484C3.30038 1.8863 3.00031 1.61311 3.00031 1.25443ZM3.6484 1.12256C3.5567 1.12256 3.50031 1.1913 3.50031 1.25443C3.50031 1.31756 3.5567 1.3863 3.6484 1.3863H31.9134C32.0515 1.3863 32.1634 1.49823 32.1634 1.6363V28.8765C32.1634 28.9396 32.2198 29.0084 32.3115 29.0084C32.4032 29.0084 32.4596 28.9396 32.4596 28.8765V1.25443C32.4596 1.1913 32.4032 1.12256 32.3115 1.12256H3.6484Z" fill="white"/>
<path fill-rule="evenodd" clip-rule="evenodd" d="M0.480365 6.53005L2.99386 4.01655C3.1481 3.86231 3.39817 3.86231 3.55241 4.01655L6.06591 6.53005C6.22015 6.68429 6.22015 6.93436 6.06591 7.0886C5.91167 7.24284 5.6616 7.24284 5.50735 7.0886L3.66809 5.24934L3.6681 29.3098L2.87818 29.3098L2.87818 5.24934L1.03892 7.0886C0.884678 7.24284 0.634605 7.24284 0.480365 7.0886C0.326124 6.93436 0.326124 6.68429 0.480365 6.53005Z" fill="white"/>
<path fill-rule="evenodd" clip-rule="evenodd" d="M3.6681 29.3098L2.87818 29.3098L2.87818 5.24934L1.03892 7.0886C0.884678 7.24284 0.634605 7.24284 0.480365 7.0886C0.326124 6.93436 0.326124 6.68429 0.480365 6.53005L2.99386 4.01655C3.1481 3.86231 3.39817 3.86231 3.55241 4.01655L6.06591 6.53005C6.22015 6.68429 6.22015 6.93436 6.06591 7.0886C5.91167 7.24284 5.6616 7.24284 5.50735 7.0886L3.66809 5.24934L3.6681 29.3098ZM3.91809 5.8529L5.33058 7.26538C5.58245 7.51725 5.99081 7.51725 6.24269 7.26538C6.49456 7.01351 6.49456 6.60514 6.24269 6.35327L3.72919 3.83977C3.47732 3.5879 3.06895 3.5879 2.81708 3.83977L0.303588 6.35327C0.0517154 6.60514 0.0517171 7.01351 0.303587 7.26538C0.55546 7.51725 0.963824 7.51725 1.2157 7.26538L2.62818 5.8529L2.62818 29.5598L3.9181 29.5598L3.91809 5.8529Z" fill="white"/>
<path fill-rule="evenodd" clip-rule="evenodd" d="M25.7758 26.5163L28.3024 29.0298C28.4575 29.1841 28.4575 29.4341 28.3024 29.5884L25.7758 32.1019C25.6208 32.2561 25.3694 32.2561 25.2143 32.1019C25.0593 31.9476 25.0593 31.6975 25.2143 31.5433L27.0632 29.704L2.8772 29.704V28.9141L27.0632 28.9141L25.2143 27.0749C25.0593 26.9206 25.0593 26.6706 25.2143 26.5163C25.3694 26.3621 25.6208 26.3621 25.7758 26.5163Z" fill="white"/>
<path fill-rule="evenodd" clip-rule="evenodd" d="M2.8772 29.704V28.9141L27.0632 28.9141L25.2143 27.0749C25.0593 26.9206 25.0593 26.6706 25.2143 26.5163C25.3694 26.3621 25.6208 26.3621 25.7758 26.5163L28.3024 29.0298C28.4575 29.1841 28.4575 29.4341 28.3024 29.5884L25.7758 32.1019C25.6208 32.2561 25.3694 32.2561 25.2143 32.1019C25.0593 31.9476 25.0593 31.6975 25.2143 31.5433L27.0632 29.704L2.8772 29.704ZM26.4574 29.954L25.038 31.3661C24.7847 31.618 24.7847 32.0271 25.038 32.2791C25.2906 32.5304 25.6996 32.5304 25.9521 32.2791L28.4787 29.7656C28.732 29.5136 28.732 29.1046 28.4787 28.8526L25.9521 26.3391C25.6996 26.0878 25.2906 26.0878 25.038 26.3391C24.7847 26.5911 24.7847 27.0001 25.038 27.2521L26.4574 28.6641L2.6272 28.6641V29.954L26.4574 29.954Z" fill="white"/>
<path fill-rule="evenodd" clip-rule="evenodd" d="M14.1625 0.988239C14.3167 1.14248 14.3167 1.39255 14.1625 1.54679L9.42301 6.28629C9.26877 6.44053 9.0187 6.44053 8.86446 6.28629C8.71022 6.13205 8.71022 5.88197 8.86446 5.72773L13.604 0.988239C13.7582 0.833998 14.0083 0.833998 14.1625 0.988239Z" fill="white"/>
<path fill-rule="evenodd" clip-rule="evenodd" d="M13.4272 0.811463C13.679 0.559591 14.0874 0.559591 14.3393 0.811463C14.5912 1.06333 14.5912 1.4717 14.3393 1.72357L9.59979 6.46306C9.34792 6.71493 8.93955 6.71493 8.68768 6.46306C8.43581 6.21119 8.43581 5.80283 8.68768 5.55095L13.4272 0.811463ZM13.9857 1.16502C13.9291 1.10841 13.8373 1.10841 13.7807 1.16502L13.6479 1.03217L13.7807 1.16502L9.04124 5.90451L8.86446 5.72773L9.04124 5.90451C8.98463 5.96112 8.98463 6.0529 9.04124 6.10951C9.09785 6.16612 9.18963 6.16612 9.24624 6.10951L13.9857 1.37002C14.0423 1.31341 14.0423 1.22163 13.9857 1.16502Z" fill="white"/>
<path fill-rule="evenodd" clip-rule="evenodd" d="M32.4623 19.8149C32.6165 19.9691 32.6165 20.2192 32.4623 20.3735L28.1177 24.718C27.9635 24.8722 27.7134 24.8722 27.5592 24.718C27.4049 24.5637 27.4049 24.3137 27.5592 24.1594L31.9037 19.8149C32.0579 19.6607 32.308 19.6607 32.4623 19.8149Z" fill="white"/>
<path fill-rule="evenodd" clip-rule="evenodd" d="M31.7269 19.6381C31.9788 19.3863 32.3872 19.3863 32.639 19.6381C32.8909 19.89 32.8909 20.2984 32.639 20.5502L28.2945 24.8948C28.0426 25.1466 27.6343 25.1466 27.3824 24.8948C27.1305 24.6429 27.1305 24.2345 27.3824 23.9827L31.7269 19.6381ZM32.2855 19.9917C32.2289 19.9351 32.1371 19.9351 32.0805 19.9917L27.7359 24.3362C27.6793 24.3928 27.6793 24.4846 27.7359 24.5412C27.7925 24.5978 27.8843 24.5978 27.9409 24.5412L32.2855 20.1967C32.3421 20.1401 32.3421 20.0483 32.2855 19.9917Z" fill="white"/>
<path fill-rule="evenodd" clip-rule="evenodd" d="M20.0851 0.986466C20.2403 1.13972 20.2419 1.38979 20.0886 1.54501L9.81975 11.9456C9.66649 12.1008 9.41642 12.1024 9.2612 11.9491C9.10598 11.7959 9.10439 11.5458 9.25765 11.3906L19.5265 0.990024C19.6798 0.834804 19.9299 0.833211 20.0851 0.986466Z" fill="white"/>
<path fill-rule="evenodd" clip-rule="evenodd" d="M19.3486 0.814377C19.5989 0.560906 20.0073 0.558305 20.2607 0.808567C20.5142 1.05883 20.5168 1.46719 20.2665 1.72066L9.99765 12.1212C9.74738 12.3747 9.33903 12.3773 9.08556 12.127C8.83208 11.8768 8.82948 11.4684 9.07975 11.2149L19.3486 0.814377ZM19.9094 1.16436C19.8525 1.10812 19.7607 1.1087 19.7044 1.16567L9.43554 11.5662C9.3793 11.6232 9.37988 11.715 9.43685 11.7712C9.49382 11.8275 9.5856 11.8269 9.64185 11.7699L19.9107 1.36936C19.967 1.31239 19.9664 1.22061 19.9094 1.16436Z" fill="white"/>
<path fill-rule="evenodd" clip-rule="evenodd" d="M32.5939 13.2316C32.7481 13.3859 32.7481 13.636 32.5939 13.7902L22.5883 23.7958C22.4341 23.95 22.184 23.95 22.0297 23.7958C21.8755 23.6416 21.8755 23.3915 22.0297 23.2372L32.0353 13.2316C32.1896 13.0774 32.4396 13.0774 32.5939 13.2316Z" fill="white"/>
<path fill-rule="evenodd" clip-rule="evenodd" d="M31.8586 13.0549C32.1104 12.803 32.5188 12.803 32.7707 13.0549L32.5939 13.2316L32.7707 13.0549C33.0225 13.3067 33.0225 13.7151 32.7707 13.967L22.7651 23.9726C22.5132 24.2244 22.1048 24.2244 21.853 23.9726L22.0295 23.796L21.853 23.9726C21.6011 23.7207 21.6011 23.3123 21.853 23.0605L31.8586 13.0549ZM32.4171 13.4084C32.3605 13.3518 32.2687 13.3518 32.2121 13.4084L22.2065 23.414C22.1499 23.4706 22.1499 23.5624 22.2065 23.619C22.2631 23.6756 22.3549 23.6756 22.4115 23.619L32.4171 13.6134C32.4737 13.5568 32.4737 13.465 32.4171 13.4084Z" fill="white"/>
<path fill-rule="evenodd" clip-rule="evenodd" d="M26.4084 1.12209C26.5614 1.27757 26.5594 1.52764 26.4039 1.68063L9.94736 17.8739C9.79188 18.0269 9.54182 18.0249 9.38883 17.8694C9.23584 17.7139 9.23785 17.4638 9.39333 17.3109L25.8499 1.11759C26.0054 0.964596 26.2554 0.966613 26.4084 1.12209Z" fill="white"/>
<path fill-rule="evenodd" clip-rule="evenodd" d="M25.6746 0.939392C25.9284 0.689559 26.3368 0.692852 26.5866 0.946747C26.8365 1.20064 26.8332 1.60899 26.5793 1.85883L10.1227 18.0521C9.86882 18.3019 9.46046 18.2986 9.21063 18.0447C8.9608 17.7908 8.96409 17.3825 9.21799 17.1327L25.6746 0.939392ZM26.2302 1.29744C26.1741 1.24037 26.0823 1.23963 26.0252 1.29578L9.56868 17.489C9.51161 17.5452 9.51087 17.637 9.56702 17.694C9.62318 17.7511 9.71495 17.7519 9.77202 17.6957L26.2286 1.50243C26.2857 1.44628 26.2864 1.3545 26.2302 1.29744Z" fill="white"/>
<path fill-rule="evenodd" clip-rule="evenodd" d="M32.5939 7.04439C32.7482 7.19863 32.7482 7.44871 32.5939 7.60295L16.0057 24.1912C15.8515 24.3454 15.6014 24.3454 15.4472 24.1912C15.2929 24.0369 15.2929 23.7869 15.4472 23.6326L32.0354 7.04439C32.1896 6.89015 32.4397 6.89015 32.5939 7.04439Z" fill="white"/>
<path fill-rule="evenodd" clip-rule="evenodd" d="M31.8586 6.86761C32.1105 6.61574 32.5188 6.61574 32.7707 6.86761C33.0226 7.11949 33.0226 7.52785 32.7707 7.77972L16.1825 24.3679C15.9306 24.6198 15.5223 24.6198 15.2704 24.3679C15.0185 24.1161 15.0185 23.7077 15.2704 23.4558L31.8586 6.86761ZM32.4172 7.22117C32.3606 7.16456 32.2688 7.16456 32.2122 7.22117L15.6239 23.8094C15.5673 23.866 15.5673 23.9578 15.6239 24.0144C15.6805 24.071 15.7723 24.071 15.8289 24.0144L32.4172 7.42617C32.4738 7.36956 32.4738 7.27778 32.4172 7.22117Z" fill="white"/>
<path fill-rule="evenodd" clip-rule="evenodd" d="M32.3306 1.11983C32.4849 1.27407 32.4849 1.52414 32.3306 1.67839L9.68638 24.3226C9.53214 24.4769 9.28207 24.4769 9.12783 24.3226C8.97359 24.1684 8.97359 23.9183 9.12783 23.7641L31.7721 1.11983C31.9263 0.96559 32.1764 0.96559 32.3306 1.11983Z" fill="white"/>
<path fill-rule="evenodd" clip-rule="evenodd" d="M31.5953 0.943054C31.8472 0.691182 32.2555 0.691182 32.5074 0.943054C32.7593 1.19493 32.7593 1.60329 32.5074 1.85516L9.86316 24.4994C9.61129 24.7513 9.20292 24.7513 8.95105 24.4994C8.69918 24.2475 8.69918 23.8392 8.95105 23.5873L31.5953 0.943054ZM32.1538 1.29661C32.0972 1.24 32.0055 1.24 31.9488 1.29661L9.3046 23.9408C9.24799 23.9975 9.24799 24.0892 9.3046 24.1458C9.36121 24.2025 9.45299 24.2025 9.5096 24.1458L32.1538 1.50161C32.2105 1.445 32.2105 1.35322 32.1538 1.29661Z" fill="white"/>
</svg>
