<svg width="636" height="637" viewBox="0 0 636 637" fill="none" xmlns="http://www.w3.org/2000/svg">
<path fill-rule="evenodd" clip-rule="evenodd" d="M503.344 63.2399C438.251 15.9104 357.512 -4.71411 277.694 5.59791C197.876 15.9099 125.03 56.3766 74.1024 118.695C23.1746 181.014 -1.97367 260.46 3.81719 340.733C9.60805 421.006 45.899 496.019 105.244 550.383C105.855 550.942 105.897 551.891 105.337 552.502C104.777 553.113 103.829 553.155 103.218 552.595C43.3074 497.714 6.67097 421.986 0.824966 340.949C-5.02104 259.911 20.3667 179.709 71.7794 116.797C123.192 53.8848 196.732 13.0329 277.31 2.62264C357.888 -7.78758 439.395 13.0333 505.108 60.8135C505.779 61.3007 505.927 62.2388 505.44 62.9088C504.952 63.5788 504.014 63.7271 503.344 63.2399Z" fill="url(#paint0_linear_20842_2)"/>
<path fill-rule="evenodd" clip-rule="evenodd" d="M538.464 545.145C539.039 545.742 539.02 546.692 538.423 547.266C487.668 596.099 422.139 626.704 352.114 634.28C282.09 641.856 211.532 625.975 151.506 589.127C150.8 588.694 150.579 587.77 151.012 587.064C151.446 586.358 152.369 586.137 153.075 586.57C212.535 623.07 282.428 638.802 351.792 631.297C421.156 623.793 486.067 593.477 536.343 545.104C536.94 544.53 537.89 544.548 538.464 545.145Z" fill="url(#paint1_linear_20842_2)"/>
<path fill-rule="evenodd" clip-rule="evenodd" d="M555.237 108.529C555.86 107.984 556.808 108.046 557.354 108.67C572.43 125.887 585.604 144.682 596.647 164.726C597.046 165.452 596.782 166.364 596.057 166.764C595.331 167.164 594.419 166.9 594.019 166.174C583.08 146.318 570.031 127.701 555.097 110.646C554.551 110.023 554.614 109.075 555.237 108.529Z" fill="url(#paint2_linear_20842_2)"/>
<path fill-rule="evenodd" clip-rule="evenodd" d="M619.85 223.112C620.641 222.867 621.481 223.31 621.726 224.101C631.414 255.379 636.213 287.966 635.955 320.709C635.948 321.537 635.272 322.203 634.443 322.197C633.615 322.19 632.949 321.514 632.955 320.685C633.211 288.251 628.457 255.972 618.861 224.989C618.615 224.197 619.058 223.357 619.85 223.112Z" fill="url(#paint3_linear_20842_2)"/>
<path fill-rule="evenodd" clip-rule="evenodd" d="M626.367 389.358C627.174 389.548 627.673 390.356 627.483 391.162C619.611 424.563 606.386 456.469 588.321 485.645C587.885 486.349 586.96 486.566 586.256 486.13C585.552 485.694 585.334 484.77 585.77 484.065C603.665 455.165 616.766 423.56 624.563 390.474C624.753 389.668 625.561 389.168 626.367 389.358Z" fill="url(#paint4_linear_20842_2)"/>
<defs>
<linearGradient id="paint0_linear_20842_2" x1="646.465" y1="283.86" x2="155.39" y2="283.86" gradientUnits="userSpaceOnUse">
<stop stop-color="#E3B873"/>
<stop offset="1" stop-color="#E3B873" stop-opacity="0"/>
</linearGradient>
<linearGradient id="paint1_linear_20842_2" x1="646.305" y1="283.86" x2="155.23" y2="283.86" gradientUnits="userSpaceOnUse">
<stop stop-color="#E3B873"/>
<stop offset="1" stop-color="#E3B873" stop-opacity="0"/>
</linearGradient>
<linearGradient id="paint2_linear_20842_2" x1="646.465" y1="283.997" x2="155.39" y2="283.997" gradientUnits="userSpaceOnUse">
<stop stop-color="#E3B873"/>
<stop offset="1" stop-color="#E3B873" stop-opacity="0"/>
</linearGradient>
<linearGradient id="paint3_linear_20842_2" x1="646.305" y1="283.997" x2="155.23" y2="283.997" gradientUnits="userSpaceOnUse">
<stop stop-color="#E3B873"/>
<stop offset="1" stop-color="#E3B873" stop-opacity="0"/>
</linearGradient>
<linearGradient id="paint4_linear_20842_2" x1="646.305" y1="283.997" x2="155.23" y2="283.997" gradientUnits="userSpaceOnUse">
<stop stop-color="#E3B873"/>
<stop offset="1" stop-color="#E3B873" stop-opacity="0"/>
</linearGradient>
</defs>
</svg>
